<?xml version="1.0" standalone="no"?>
<!DOCTYPE svg PUBLIC "-//W3C//DTD SVG 20010904//EN"
 "http://www.w3.org/TR/2001/REC-SVG-20010904/DTD/svg10.dtd">
<svg version="1.0" xmlns="http://www.w3.org/2000/svg"
 width="512.000000pt" height="512.000000pt" viewBox="0 0 512.000000 512.000000"
 preserveAspectRatio="xMidYMid meet">

<g transform="translate(0.000000,512.000000) scale(0.100000,-0.100000)"
fill="#000000" stroke="none">
<path d="M1505 4785 c-417 -68 -768 -303 -985 -661 -246 -405 -265 -928 -49
-1349 194 -381 539 -645 961 -737 86 -18 134 -22 288 -22 164 0 198 3 296 26
209 49 394 137 558 264 l70 55 193 -193 193 -192 -104 -106 c-112 -113 -126
-140 -111 -217 6 -34 81 -113 658 -689 520 -520 662 -656 702 -675 40 -19 67
-23 135 -24 136 0 159 13 338 189 189 186 207 217 207 351 0 74 -5 99 -24 140
-19 40 -157 183 -670 697 -700 700 -677 680 -767 663 -31 -5 -59 -27 -144
-111 l-106 -104 -193 194 -193 193 52 64 c273 337 369 825 245 1252 -143 492
-549 870 -1050 977 -133 28 -374 35 -500 15z m450 -170 c444 -95 791 -405 934
-831 92 -275 78 -605 -37 -872 -130 -301 -415 -563 -731 -671 -193 -66 -430
-88 -607 -57 -266 46 -469 152 -665 346 -204 201 -314 418 -355 692 -53 362
70 752 327 1032 182 198 452 338 724 375 93 13 322 5 410 -14z m2731 -3742
c19 -43 18 -107 -2 -146 -22 -43 -218 -243 -273 -278 -49 -32 -114 -38 -162
-16 -15 7 -309 292 -655 635 l-628 623 230 230 229 229 623 -622 c358 -358
630 -637 638 -655z"/>
<path d="M1600 4374 c-90 -12 -214 -50 -305 -94 -409 -198 -624 -629 -530
-1067 43 -202 139 -378 286 -519 119 -114 235 -182 396 -231 81 -24 102 -27
263 -27 194 -1 249 9 392 69 490 207 727 826 500 1309 -124 264 -370 467 -654
537 -81 20 -273 32 -348 23z m283 -170 c162 -36 359 -156 464 -283 61 -74 134
-216 160 -311 27 -101 25 -320 -5 -423 -67 -235 -226 -421 -444 -521 -99 -46
-175 -65 -290 -73 -266 -17 -525 96 -683 299 -71 90 -140 230 -166 338 -28
110 -23 287 11 395 90 289 334 515 625 580 84 19 242 18 328 -1z"/>
</g>
</svg>
